<svg xmlns="http://www.w3.org/2000/svg" width="128" height="64" shape-rendering="crispEdges" viewBox="0 0 128 64">
  <defs>
    <filter id="px"><feComponentTransfer><feFuncA type="discrete" tableValues="0 1"/></feComponentTransfer></filter>
  </defs>
  <rect width="128" height="64" fill="#000"/>
  <!-- 0 grass -->
  <g transform="translate(0,0)"><rect width="16" height="16" fill="#4fa35b"/><path d="M2 12h2v2H2zM7 4h2v2H7zM12 9h2v2h-2z" fill="#6fc76b"/><path d="M5 11h1v2H5zM10 3h1v2h-1z" fill="#2f7d46"/></g>
  <!-- 1 dark grass -->
  <g transform="translate(16,0)"><rect width="16" height="16" fill="#3f8d51"/><path d="M1 4h3v1H1zM8 12h4v1H8zM13 2h2v2h-2z" fill="#65b963"/><path d="M5 2h2v2H5zM9 8h1v2H9z" fill="#286b40"/></g>
  <!-- 2 flowers -->
  <g transform="translate(32,0)"><rect width="16" height="16" fill="#4ca25a"/><path d="M3 6h2v2H3zM11 10h2v2h-2z" fill="#ffe17a"/><path d="M7 3h2v2H7z" fill="#f6a6ca"/><path d="M2 12h2v1H2zM13 4h1v2h-1z" fill="#2f7d46"/></g>
  <!-- 3 path -->
  <g transform="translate(48,0)"><rect width="16" height="16" fill="#b98a55"/><path d="M0 0h16v2H0zM0 14h16v2H0z" fill="#a67647"/><path d="M3 5h3v2H3zM10 10h4v2h-4zM7 2h2v1H7z" fill="#d2aa72"/></g>
  <!-- 4 water a -->
  <g transform="translate(64,0)"><rect width="16" height="16" fill="#2e83b7"/><path d="M0 5h5v2H0zM8 4h7v2H8zM3 11h7v2H3z" fill="#67c8e7"/><path d="M0 14h16v2H0z" fill="#1e5f94"/></g>
  <!-- 5 water b -->
  <g transform="translate(80,0)"><rect width="16" height="16" fill="#2b79ad"/><path d="M2 4h7v2H2zM11 7h5v2h-5zM0 12h6v2H0z" fill="#74d1ec"/><path d="M0 14h16v2H0z" fill="#1d5a8c"/></g>
  <!-- 6 water c -->
  <g transform="translate(96,0)"><rect width="16" height="16" fill="#328bc0"/><path d="M5 4h8v2H5zM0 8h5v2H0zM9 12h7v2H9z" fill="#82d9f0"/><path d="M0 14h16v2H0z" fill="#21679d"/></g>
  <!-- 7 bridge -->
  <g transform="translate(112,0)"><rect width="16" height="16" fill="#8f5e35"/><path d="M0 3h16v2H0zM0 8h16v2H0zM0 13h16v2H0z" fill="#5b3523"/><path d="M3 0h2v16H3zM11 0h2v16h-2z" fill="#c28a52"/></g>
  <!-- 8 tree top -->
  <g transform="translate(0,16)"><rect width="16" height="16" fill="#2f7d46"/><path d="M2 2h12v12H2z" fill="#276f40"/><path d="M4 0h7v6H4zM0 6h16v5H0z" fill="#45a65a"/><path d="M5 4h3v2H5zM10 9h2v2h-2z" fill="#70ca6d"/></g>
  <!-- 9 tree trunk -->
  <g transform="translate(16,16)"><rect width="16" height="16" fill="#3f8d51"/><rect x="6" y="0" width="4" height="16" fill="#7a4a2b"/><path d="M5 8h6v8H5z" fill="#6a3d25"/><path d="M7 1h1v11H7z" fill="#b07845"/></g>
  <!-- 10 cliff -->
  <g transform="translate(32,16)"><rect width="16" height="16" fill="#816848"/><path d="M0 0h16v5H0z" fill="#a98a5f"/><path d="M2 7h2v7H2zM8 5h2v9H8zM13 6h1v6h-1z" fill="#5f4a37"/><path d="M4 2h4v1H4z" fill="#d2ba86"/></g>
  <!-- 11 rock -->
  <g transform="translate(48,16)"><rect width="16" height="16" fill="#4fa35b"/><path d="M3 7h10v6H3zM5 4h6v3H5z" fill="#6f7c80"/><path d="M5 5h5v1H5zM4 8h3v1H4z" fill="#aeb8b3"/><path d="M9 12h4v1H9z" fill="#424e54"/></g>
  <!-- 12 roof -->
  <g transform="translate(64,16)"><rect width="16" height="16" fill="#8d3440"/><path d="M0 5h16v11H0z" fill="#a9434c"/><path d="M1 1h14v4H1z" fill="#d66a57"/><path d="M0 14h16v2H0z" fill="#602933"/></g>
  <!-- 13 wall -->
  <g transform="translate(80,16)"><rect width="16" height="16" fill="#d0b27b"/><path d="M0 0h16v3H0zM0 13h16v3H0z" fill="#9d744d"/><path d="M3 5h4v4H3zM10 5h3v4h-3z" fill="#68472f"/></g>
  <!-- 14 door -->
  <g transform="translate(96,16)"><rect width="16" height="16" fill="#c49a66"/><rect x="5" y="4" width="6" height="12" fill="#4a2b1f"/><path d="M10 10h1v1h-1z" fill="#f4d06f"/></g>
  <!-- 15 sign -->
  <g transform="translate(112,16)"><rect width="16" height="16" fill="#4fa35b"/><rect x="7" y="7" width="2" height="8" fill="#714523"/><rect x="3" y="3" width="10" height="6" fill="#bd8545"/><path d="M5 5h6v1H5z" fill="#4a2b1f"/></g>
  <!-- 16 ruin -->
  <g transform="translate(0,32)"><rect width="16" height="16" fill="#4fa35b"/><rect x="3" y="3" width="10" height="11" fill="#8d9290"/><path d="M5 0h3v5H5zM10 2h2v3h-2z" fill="#bbc0b8"/><path d="M4 7h8v2H4z" fill="#59615f"/></g>
  <!-- 17 torch -->
  <g transform="translate(16,32)"><rect width="16" height="16" fill="#4fa35b"/><rect x="7" y="8" width="2" height="8" fill="#5a3523"/><path d="M6 4h4v5H6z" fill="#ffb347"/><path d="M7 2h2v4H7z" fill="#fff18a"/></g>
  <!-- 18 cave -->
  <g transform="translate(32,32)"><rect width="16" height="16" fill="#816848"/><path d="M1 6h14v10H1z" fill="#514436"/><path d="M4 7h8v9H4z" fill="#151820"/><path d="M3 4h10v3H3z" fill="#a98a5f"/></g>
  <!-- 19 leaf shadow -->
  <g transform="translate(48,32)"><rect width="16" height="16" fill="none"/><path d="M0 0h9v3H0zM4 5h12v3H4zM1 11h8v3H1z" fill="#172b24" opacity="0.38"/></g>
  <!-- 20 shallow -->
  <g transform="translate(64,32)"><rect width="16" height="16" fill="#4aa9bd"/><path d="M1 6h8v1H1zM7 11h8v1H7z" fill="#b7edf0"/><path d="M0 0h16v3H0z" fill="#65b963"/></g>
  <!-- 21 stairs -->
  <g transform="translate(80,32)"><rect width="16" height="16" fill="#8a6f4f"/><path d="M1 3h14v2H1zM2 7h12v2H2zM3 11h10v2H3z" fill="#c4a26c"/></g>
  <!-- 22 interior floor -->
  <g transform="translate(96,32)"><rect width="16" height="16" fill="#9d744d"/><path d="M0 0h16v1H0zM0 8h16v1H0zM7 0h1v16H7z" fill="#7a5638"/></g>
  <!-- 23 interior wall -->
  <g transform="translate(112,32)"><rect width="16" height="16" fill="#67515f"/><path d="M0 13h16v3H0z" fill="#3d3140"/><path d="M3 4h10v5H3z" fill="#8d6f77"/></g>
</svg>
